<?xml version="1.0" encoding="UTF-8" standalone="no"?>
<!-- Created with Inkscape (http://www.inkscape.org/) -->

<svg
   xmlns:dc="http://purl.org/dc/elements/1.1/"
   xmlns:cc="http://creativecommons.org/ns#"
   xmlns:rdf="http://www.w3.org/1999/02/22-rdf-syntax-ns#"
   xmlns:svg="http://www.w3.org/2000/svg"
   xmlns="http://www.w3.org/2000/svg"
   xmlns:xlink="http://www.w3.org/1999/xlink"
   xmlns:sodipodi="http://sodipodi.sourceforge.net/DTD/sodipodi-0.dtd"
   xmlns:inkscape="http://www.inkscape.org/namespaces/inkscape"
   width="48"
   height="48"
   viewBox="0 0 12.7 12.7"
   version="1.1"
   id="svg8"
   inkscape:version="0.92.4 (unknown)"
   sodipodi:docname="server.svg">
  <defs
     id="defs2">
    <filter
       inkscape:collect="always"
       style="color-interpolation-filters:sRGB"
       id="filter1718"
       x="-0.013928571"
       width="1.0278571"
       y="-0.086666666"
       height="1.1733333">
      <feGaussianBlur
         inkscape:collect="always"
         stdDeviation="1.3"
         id="feGaussianBlur1720" />
    </filter>
    <linearGradient
       inkscape:collect="always"
       xlink:href="#linearGradient1540"
       id="linearGradient1542"
       x1="2148"
       y1="612"
       x2="2148"
       y2="608"
       gradientUnits="userSpaceOnUse"
       gradientTransform="matrix(0.05409272,0,0,0.16227814,-110.04142,197.31313)" />
    <linearGradient
       inkscape:collect="always"
       id="linearGradient1540">
      <stop
         style="stop-color:#000000;stop-opacity:1;"
         offset="0"
         id="stop1536" />
      <stop
         style="stop-color:#000000;stop-opacity:0;"
         offset="1"
         id="stop1538" />
    </linearGradient>
  </defs>
  <sodipodi:namedview
     id="base"
     pagecolor="#ffffff"
     bordercolor="#666666"
     borderopacity="1.0"
     inkscape:pageopacity="0.0"
     inkscape:pageshadow="2"
     inkscape:zoom="3.959798"
     inkscape:cx="13.014023"
     inkscape:cy="2.6339984"
     inkscape:document-units="mm"
     inkscape:current-layer="layer1"
     showgrid="false"
     units="px"
     inkscape:window-width="1366"
     inkscape:window-height="707"
     inkscape:window-x="0"
     inkscape:window-y="27"
     inkscape:window-maximized="1"
     inkscape:snap-nodes="false">
    <inkscape:grid
       type="xygrid"
       id="grid191736" />
  </sodipodi:namedview>
  <metadata
     id="metadata5">
    <rdf:RDF>
      <cc:Work
         rdf:about="">
        <dc:format>image/svg+xml</dc:format>
        <dc:type
           rdf:resource="http://purl.org/dc/dcmitype/StillImage" />
        <dc:title></dc:title>
      </cc:Work>
    </rdf:RDF>
  </metadata>
  <g
     inkscape:label="Layer 1"
     inkscape:groupmode="layer"
     id="layer1"
     transform="translate(0,-284.3)">
    <g
       id="g192033"
       transform="translate(0,-0.93683416)">
      <path
         transform="matrix(0.05409272,0,0,0.05409272,-110.04142,263.5226)"
         id="rect2619-9-7"
         d="m 2152,593 c -2.216,0 -4,1.784 -4,4 v 16 h -12 c -2.216,0 -4,1.784 -4,4 h -90 c -1.108,0 -2,0.892 -2,2 v 2 2 c 0,1.108 0.892,2 2,2 h 90 c 0,2.216 1.784,4 4,4 h 32 c 2.216,0 4,-1.784 4,-4 h 90 c 1.108,0 2,-0.892 2,-2 v -2 -2 c 0,-1.108 -0.892,-2 -2,-2 h -90 c 0,-0.831 -0.2512,-1.60203 -0.6816,-2.24023 C 2170.6009,613.69609 2169.385,613 2168,613 h -12 v -16 c 0,-2.216 -1.784,-4 -4,-4 z"
         style="display:inline;opacity:0.2;vector-effect:none;fill:#000000;fill-opacity:1;stroke:none;stroke-width:4.00079155;stroke-linecap:butt;stroke-linejoin:miter;stroke-miterlimit:4;stroke-dasharray:none;stroke-dashoffset:0;stroke-opacity:1;marker:none;filter:url(#filter1718);enable-background:new"
         inkscape:connector-curvature="0" />
      <rect
         ry="0.10818543"
         rx="0.10818543"
         y="296.84369"
         x="0.3077141"
         height="0.4327417"
         width="12.116768"
         id="rect2619-9"
         style="display:inline;opacity:1;vector-effect:none;fill:#666666;fill-opacity:1;stroke:none;stroke-width:0.21641368;stroke-linecap:butt;stroke-linejoin:miter;stroke-miterlimit:4;stroke-dasharray:none;stroke-dashoffset:0;stroke-opacity:1;marker:none;enable-background:new" />
      <rect
         ry="0.21637085"
         rx="0.21637085"
         y="295.5455"
         x="6.1497283"
         height="1.5145961"
         width="0.4327417"
         id="rect2625-2"
         style="display:inline;opacity:1;vector-effect:none;fill:#666666;fill-opacity:1;stroke:none;stroke-width:0.21641368;stroke-linecap:butt;stroke-linejoin:miter;stroke-miterlimit:4;stroke-dasharray:none;stroke-dashoffset:0;stroke-opacity:1;marker:none;enable-background:new" />
      <path
         inkscape:connector-curvature="0"
         id="rect2619-9-8"
         d="m 0.41590061,296.84372 c -0.0599375,0 -0.10818575,0.0482 -0.10818575,0.10819 v 0.10817 c 0,-0.06 0.0482519,-0.10817 0.10818575,-0.10817 H 12.316298 c 0.05994,0 0.108186,0.0482 0.108186,0.10817 v -0.10817 c 0,-0.06 -0.04825,-0.10819 -0.108186,-0.10819 z"
         style="display:inline;opacity:0.2;vector-effect:none;fill:#cccccc;fill-opacity:1;stroke:none;stroke-width:0.21641368;stroke-linecap:butt;stroke-linejoin:miter;stroke-miterlimit:4;stroke-dasharray:none;stroke-dashoffset:0;stroke-opacity:1;marker:none;enable-background:new" />
      <rect
         ry="0.21637085"
         rx="0.21637085"
         y="296.62735"
         x="5.284245"
         height="0.8654834"
         width="2.1637084"
         id="rect2621-7"
         style="display:inline;opacity:1;vector-effect:none;fill:#666666;fill-opacity:1;stroke:none;stroke-width:0.21641368;stroke-linecap:butt;stroke-linejoin:miter;stroke-miterlimit:4;stroke-dasharray:none;stroke-dashoffset:0;stroke-opacity:1;marker:none;enable-background:new" />
      <path
         inkscape:connector-curvature="0"
         id="rect2621-7-7"
         d="m 5.5006161,296.62734 c -0.11987,0 -0.216371,0.0965 -0.216371,0.21638 v 0.10819 c 0,-0.11988 0.096501,-0.21638 0.216371,-0.21638 h 1.7309663 c 0.1198699,0 0.2163708,0.0965 0.2163708,0.21638 v -0.10819 c 0,-0.11988 -0.096501,-0.21638 -0.2163708,-0.21638 z"
         style="display:inline;opacity:0.2;vector-effect:none;fill:#ffffff;fill-opacity:1;stroke:none;stroke-width:0.21641368;stroke-linecap:butt;stroke-linejoin:miter;stroke-miterlimit:4;stroke-dasharray:none;stroke-dashoffset:0;stroke-opacity:1;marker:none;enable-background:new" />
      <rect
         y="295.97821"
         x="6.1497283"
         height="0.64911264"
         width="0.4327417"
         id="rect1534"
         style="opacity:0.2;vector-effect:none;fill:url(#linearGradient1542);fill-opacity:1;stroke:none;stroke-width:0.21641368;stroke-linecap:butt;stroke-linejoin:miter;stroke-miterlimit:4;stroke-dasharray:none;stroke-dashoffset:0;stroke-opacity:1;marker:none" />
      <path
         inkscape:connector-curvature="0"
         id="rect2621-7-7-7"
         d="m 5.5006161,296.62734 c -0.11987,0 -0.216371,0.0965 -0.216371,0.21638 v 0.054 c 0,-0.11987 0.096501,-0.21637 0.216371,-0.21637 h 1.7309663 c 0.1198699,0 0.2163708,0.0965 0.2163708,0.21637 v -0.054 c 0,-0.11988 -0.096501,-0.21638 -0.2163708,-0.21638 z"
         style="display:inline;opacity:0.8;vector-effect:none;fill:#ffffff;fill-opacity:1;stroke:none;stroke-width:0.21641368;stroke-linecap:butt;stroke-linejoin:miter;stroke-miterlimit:4;stroke-dasharray:none;stroke-dashoffset:0;stroke-opacity:1;marker:none;enable-background:new" />
    </g>
    <g
       transform="matrix(0.05280182,0,0,0.0486185,-6.6705535,270.96874)"
       id="g97178"
       style="fill:#ff6600">
      <path
         style="color:#000000;display:inline;overflow:visible;visibility:visible;opacity:0.70999995;fill:#ff6600;fill-opacity:1;fill-rule:nonzero;stroke:none;stroke-width:0.99291801;marker:none;enable-background:accumulate"
         d="m 176.04903,280 c -34.86934,0 -38.44378,1.99915 -38.44378,37.29688 V 368 h 220.8385 V 336.92188 C 358.44375,301.62415 354.86932,296 320,296 h -85.77791 l -15.77417,-16 z"
         id="path97174"
         inkscape:connector-curvature="0"
         sodipodi:nodetypes="ssccssccs" />
      <path
         sodipodi:nodetypes="ssccssccs"
         inkscape:connector-curvature="0"
         id="path97176"
         d="m 176.02453,283.0773 c -34.86934,0 -38.44378,1.99915 -38.44378,37.29688 v 50.70312 h 220.8385 v -31.07812 c 0,-35.29773 -3.57443,-40.92188 -38.44375,-40.92188 h -85.77791 l -15.77417,-16 z"
         style="color:#000000;display:inline;overflow:visible;visibility:visible;fill:#ff6600;fill-opacity:1;fill-rule:nonzero;stroke:none;stroke-width:0.99291801;marker:none;enable-background:accumulate" />
    </g>
    <g
       transform="matrix(0.05303801,0,0,0.0486185,-6.7011429,271.31283)"
       id="g97186"
       style="fill:#666666">
      <path
         sodipodi:nodetypes="ssssssssccs"
         style="color:#000000;display:inline;overflow:visible;visibility:visible;opacity:0.61000001;fill:#666666;fill-opacity:1;fill-rule:nonzero;stroke:none;stroke-width:0.99549657;marker:none;enable-background:accumulate"
         d="m 175.64961,328 c -35.05069,0 -38.64311,3.625 -38.64311,38.92273 v 82.15454 C 137.0065,484.375 140.59892,488 175.64961,488 h 144.70081 c 35.05066,0 38.64308,-3.625 38.64308,-38.92273 V 350.92273 C 358.9935,315.625 355.40108,312 320.35042,312 h -80.52628 l -15.86396,16 z"
         id="path97180"
         inkscape:connector-curvature="0" />
      <path
         sodipodi:nodetypes="ssssssssccs"
         style="color:#000000;display:inline;overflow:visible;visibility:visible;opacity:0.71199999;fill:#666666;fill-opacity:1;fill-rule:nonzero;stroke:none;stroke-width:1;marker:none;enable-background:accumulate"
         d="m 173.98703,320 c -35.36853,0 -38.99353,3.625 -38.99353,38.92273 v 82.15454 C 134.9935,476.375 138.6185,480 173.98703,480 H 320 c 35.3685,0 38.9935,-3.625 38.9935,-38.92273 V 342.92273 C 358.9935,307.625 355.3685,304 320,304 h -81.2565 l -16.00782,16 z"
         id="path97182"
         inkscape:connector-curvature="0" />
      <path
         inkscape:connector-curvature="0"
         id="path97184"
         d="M 174.99353,324 C 139.625,324 136,327.625 136,362.92273 v 82.15454 C 136,480.375 139.625,484 174.99353,484 H 321.0065 C 356.375,484 360,480.375 360,445.07727 V 346.92273 C 360,311.625 356.375,308 321.0065,308 H 239.75 l -16.00782,16 z"
         style="color:#000000;display:inline;overflow:visible;visibility:visible;opacity:1;fill:#666666;fill-opacity:1;fill-rule:nonzero;stroke:none;stroke-width:1;marker:none;enable-background:accumulate"
         sodipodi:nodetypes="ssssssssccs" />
    </g>
  </g>
</svg>
